<svg xmlns="http://www.w3.org/2000/svg" fill="none" viewBox="0 0 24 24" stroke-width="1.5" stroke="currentColor" class="w-6 h-6">
    <path id="path1" fill="none" stroke="#f9cb9c" stroke-width="1.5" stroke-linecap="round" stroke-linejoin="round" d="M 15 9 L 18.75 9 M 15 12 L 18.75 12 M 15 15 L 18.75 15 M 4.5 19.5 L 19.5 19.5 C 20.742641 19.5 21.75 18.492641 21.75 17.25 L 21.75 6.75 C 21.75 5.507359 20.742641 4.5 19.5 4.5 L 4.5 4.5 C 3.257359 4.5 2.25 5.507359 2.25 6.75 L 2.25 17.25 C 2.25 18.492641 3.257359 19.5 4.5 19.5 Z M 10.5 9.375 C 10.5 10.410534 9.660534 11.25 8.625 11.25 C 7.589466 11.25 6.75 10.410534 6.75 9.375 C 6.75 8.339466 7.589466 7.5 8.625 7.5 C 9.660534 7.5 10.5 8.339466 10.5 9.375 Z M 11.794 15.711 C 10.818301 16.2307 9.729474 16.501705 8.624 16.5 C 7.519202 16.501375 6.431102 16.230381 5.456 15.711 C 5.944077 14.382165 7.209365 13.498965 8.625 13.498965 C 10.040635 13.498965 11.305923 14.382165 11.794 15.711 Z"/>
</svg>
